<?xml version="1.0" standalone="no"?>
<!DOCTYPE svg PUBLIC "-//W3C//DTD SVG 20010904//EN"
 "http://www.w3.org/TR/2001/REC-SVG-20010904/DTD/svg10.dtd">
<svg version="1.0" xmlns="http://www.w3.org/2000/svg"
 width="1119.000000pt" height="1050.000000pt" viewBox="0 0 1119.000000 1050.000000"
 preserveAspectRatio="xMidYMid meet">

<g transform="translate(0.000000,1050.000000) scale(0.100000,-0.100000)"
fill="#000000" stroke="none">
<path d="M5175 10415 c-965 -84 -1861 -393 -2635 -909 -1000 -667 -1736 -1645
-2069 -2751 -138 -455 -201 -891 -201 -1380 0 -586 91 -1111 283 -1640 169
-464 401 -892 701 -1290 80 -107 216 -275 221 -275 2 0 19 7 39 15 l37 16 -5
-48 c-2 -26 -5 -91 -6 -143 l-1 -95 -46 -23 c-28 -14 -41 -17 -34 -9 6 8 25
20 41 27 l30 12 1 112 c0 61 2 119 4 128 2 10 -1 18 -6 18 -5 0 -9 -5 -9 -11
0 -5 -4 -8 -9 -5 -5 3 -11 0 -14 -7 -3 -7 -23 -12 -50 -12 -25 0 -44 -2 -41
-6 2 -4 -10 -12 -26 -19 -16 -7 -27 -16 -24 -21 3 -5 2 -9 -3 -8 -29 5 -55 -3
-60 -19 -3 -13 -11 -18 -27 -15 -17 4 -25 -1 -29 -17 -4 -17 -10 -20 -26 -15
-13 4 -21 2 -21 -5 0 -6 6 -8 12 -4 10 5 10 3 0 -7 -11 -12 -14 -12 -22 1 -5
8 -10 10 -10 5 0 -6 -15 -16 -33 -23 -24 -9 -29 -15 -18 -21 7 -5 10 -14 6
-21 -5 -9 -1 -10 16 -6 20 6 21 5 6 -4 -9 -6 -22 -8 -29 -4 -8 5 -9 2 -5 -10
4 -10 3 -15 -4 -11 -5 4 -7 15 -4 25 7 23 -13 37 -21 16 -3 -9 1 -28 11 -42
l17 -26 19 21 c11 12 25 21 32 20 9 0 9 -2 0 -6 -7 -2 -13 -9 -13 -14 0 -6 4
-7 10 -4 5 3 10 2 10 -4 0 -15 -18 -23 -22 -9 -5 15 -28 1 -28 -18 0 -8 4 -13
9 -9 5 3 12 1 15 -4 4 -5 -1 -8 -10 -7 -9 1 -22 12 -28 23 -9 17 -13 18 -23 8
-6 -7 -9 -16 -5 -21 4 -4 1 -4 -6 0 -19 11 -12 -25 8 -42 8 -8 10 -11 3 -8 -6
4 -14 2 -17 -3 -3 -4 -25 -5 -48 -1 -27 5 -48 4 -56 -2 -8 -7 -17 -7 -27 2
-17 14 -17 14 -20 -17 -1 -12 2 -20 7 -17 4 3 5 11 1 17 -4 7 0 6 10 -2 18
-14 23 -26 8 -17 -5 3 -11 -1 -14 -8 -3 -8 -1 -17 6 -20 8 -3 7 -5 -2 -5 -11
-1 -10 -5 5 -16 18 -13 18 -14 -4 -8 -24 6 -41 23 -23 23 8 0 7 7 -1 19 -7 11
-16 17 -21 14 -4 -3 -6 -7 -3 -10 2 -2 -5 -14 -16 -25 -14 -14 -17 -23 -8 -33
8 -10 7 -13 -6 -11 -9 0 -19 -5 -22 -13 -3 -8 0 -11 7 -7 7 4 9 1 5 -8 -3 -8
-11 -12 -19 -10 -7 3 -17 -7 -23 -25 -8 -22 -15 -29 -26 -25 -9 3 -16 1 -16
-6 0 -6 5 -8 10 -5 13 8 13 -7 -1 -42 -6 -15 -21 -73 -35 -128 -16 -69 -22
-84 -18 -47 3 28 4 52 1 52 -3 0 -13 -24 -21 -54 -20 -67 -22 -276 -4 -294 9
-9 9 -15 1 -23 -8 -8 -9 -19 -2 -37 5 -13 7 -27 4 -30 -3 -3 -5 1 -5 8 0 7 -3
10 -6 7 -4 -4 -1 -13 6 -22 10 -12 10 -15 0 -15 -18 0 -7 -297 15 -410 38
-201 56 -314 51 -327 -3 -8 -2 -12 3 -9 5 3 14 -29 20 -71 6 -43 17 -94 23
-115 l11 -38 3539 0 c2831 0 3538 2 3538 12 -2 46 -32 174 -55 233 -36 90
-120 209 -211 295 -64 61 -72 72 -72 106 -1 56 -27 171 -51 228 -12 26 -21 52
-21 58 0 15 -343 695 -382 759 -11 17 -16 54 -17 129 -1 117 -3 132 -27 203
-19 59 -94 169 -135 199 -55 41 -81 91 -85 164 -1 36 -5 69 -8 72 -3 3 -6 16
-6 29 0 26 -82 372 -99 415 -5 14 -19 35 -31 46 -14 13 -22 34 -24 63 -1 30
-20 80 -57 155 -101 201 -195 322 -331 425 -76 58 -94 77 -62 65 8 -3 13 -2
11 2 -59 103 -64 238 -11 308 17 23 40 37 81 50 32 9 79 32 104 51 26 18 56
33 68 33 12 0 21 6 21 15 0 8 13 36 30 63 88 144 134 396 99 550 -5 26 -14 65
-19 87 -26 120 -58 231 -81 280 -30 66 -70 201 -80 270 -7 54 -22 103 -45 150
-42 85 -64 196 -64 317 0 95 9 119 95 258 45 74 95 189 126 293 26 87 40 117
76 158 60 71 110 164 150 281 33 98 34 104 34 263 -1 152 -13 264 -40 365 -6
19 -14 51 -19 70 -32 117 -76 226 -145 365 -63 127 -69 137 -104 192 -18 29
-33 55 -33 58 0 7 -100 157 -110 165 -3 3 -43 52 -89 110 -116 148 -113 144
-148 184 -18 20 -37 36 -43 36 -6 0 -13 7 -16 15 -4 8 -11 15 -18 15 -7 0 -23
13 -36 30 -14 16 -29 29 -33 30 -4 0 -21 14 -37 30 -16 17 -34 30 -40 30 -6 0
-13 7 -16 15 -4 8 -13 15 -20 15 -8 0 -17 7 -20 15 -4 8 -13 15 -20 15 -8 0
-17 7 -20 15 -4 8 -17 15 -30 15 -14 0 -27 7 -30 15 -4 8 -17 15 -30 15 -14 0
-27 7 -30 15 -4 9 -19 15 -35 15 -19 0 -29 5 -29 15 0 9 -9 15 -25 15 -14 0
-28 7 -31 15 -4 8 -16 15 -29 15 -13 0 -25 7 -29 15 -3 8 -10 15 -15 15 -5 0
-30 20 -57 45 -26 25 -55 45 -64 45 -10 0 -23 7 -30 15 -7 9 -29 15 -55 15
-26 0 -48 6 -55 15 -7 8 -23 15 -37 15 -13 0 -26 7 -29 15 -4 8 -16 15 -28 15
-12 0 -31 7 -42 15 -10 8 -31 15 -45 15 -14 0 -34 7 -45 15 -10 8 -32 15 -49
15 -16 0 -43 7 -59 15 -15 8 -45 15 -66 15 -21 0 -43 7 -50 15 -7 8 -29 15
-50 15 -21 0 -43 7 -50 15 -8 10 -30 15 -63 15 -32 0 -57 6 -68 16 -25 23
-365 27 -379 4 -7 -12 -35 -16 -126 -18 -64 -1 -126 -8 -138 -14 -12 -7 -94
-13 -201 -16 -112 -2 -185 -8 -194 -15 -7 -6 -59 -13 -115 -15 -63 -3 -108
-10 -121 -18 -11 -8 -31 -14 -46 -14 -15 0 -40 -7 -55 -15 -16 -8 -44 -15 -62
-15 -18 0 -40 -7 -48 -15 -9 -8 -26 -15 -39 -15 -12 0 -25 -7 -29 -15 -3 -8
-15 -15 -26 -15 -11 0 -23 -7 -26 -15 -4 -8 -17 -15 -30 -15 -14 0 -27 -7 -30
-15 -4 -8 -17 -15 -30 -15 -15 0 -24 -6 -24 -15 0 -8 -5 -15 -10 -15 -6 0 -18
-8 -29 -17 -57 -54 -80 -73 -89 -73 -5 0 -12 -7 -16 -15 -3 -8 -12 -15 -19
-15 -8 0 -20 -7 -27 -15 -7 -8 -18 -15 -26 -15 -13 0 -84 -65 -84 -77 0 -3
-11 -16 -25 -29 -14 -13 -25 -28 -25 -34 0 -5 -3 -10 -8 -10 -4 0 -14 -11 -22
-24 -8 -14 -45 -55 -81 -93 -36 -37 -83 -94 -104 -125 -21 -32 -41 -58 -44
-58 -6 0 -18 -25 -70 -160 -12 -30 -34 -75 -49 -100 -25 -42 -79 -178 -122
-310 -67 -205 -118 -602 -105 -820 8 -132 15 -264 20 -365 5 -96 15 -168 26
-179 5 -6 9 -20 9 -33 0 -13 4 -23 9 -23 4 0 14 -21 20 -47 7 -27 17 -63 23
-82 13 -42 3 -165 -22 -251 -29 -102 -44 -612 -20 -675 6 -15 10 -43 10 -64 0
-56 16 -95 83 -201 33 -52 71 -112 83 -132 13 -21 48 -56 76 -79 29 -23 55
-45 56 -50 2 -5 9 -9 16 -9 11 0 65 -25 96 -45 18 -12 72 -33 120 -47 28 -8
40 -20 58 -56 58 -119 -4 -301 -107 -317 -20 -4 -48 -13 -63 -21 -14 -8 -39
-14 -55 -14 -15 0 -37 -7 -47 -15 -11 -8 -29 -15 -40 -15 -12 0 -30 -7 -40
-15 -11 -8 -32 -15 -47 -15 -14 0 -32 -7 -39 -15 -7 -8 -20 -15 -30 -15 -10 0
-20 -7 -24 -15 -3 -8 -12 -15 -21 -15 -8 0 -15 -5 -15 -10 0 -6 -11 -15 -25
-20 -14 -5 -25 -14 -25 -20 0 -5 -5 -10 -12 -10 -7 0 -23 -12 -36 -28 -30 -34
-161 -303 -175 -357 -15 -64 -20 -187 -8 -227 13 -42 7 -61 -51 -152 -21 -33
-38 -65 -38 -73 0 -7 -8 -26 -17 -40 -21 -32 -52 -113 -66 -173 -14 -61 -20
-349 -8 -375 75 -160 74 -156 72 -239 -1 -43 -5 -84 -9 -90 -6 -11 -19 -77
-29 -153 l-5 -42 -60 71 c-320 384 -579 814 -773 1283 -58 140 -160 455 -199
615 -98 402 -136 712 -136 1130 0 525 73 982 235 1468 194 580 488 1100 904
1597 117 140 482 499 631 621 887 724 1908 1127 3080 1215 204 15 756 6 950
-15 706 -80 1314 -258 1913 -561 504 -255 918 -555 1323 -959 374 -374 617
-696 857 -1132 270 -494 463 -1084 531 -1629 37 -298 48 -701 26 -970 -60
-720 -269 -1381 -637 -2012 l-25 -43 84 0 83 0 28 53 c352 646 540 1258 602
1952 19 204 19 633 0 835 -119 1317 -756 2508 -1810 3385 -782 650 -1779 1081
-2803 1210 -359 46 -875 58 -1207 30z m-213 -1992 c-46 -67 -34 -84 35 -53
181 80 485 20 676 -133 71 -56 80 -68 175 -224 99 -164 243 -459 271 -559 7
-21 21 -86 31 -143 36 -190 22 -522 -35 -822 -24 -131 -28 -290 -11 -429 37
-291 7 -549 -86 -735 -72 -142 -149 -236 -437 -530 -156 -159 -301 -302 -323
-317 -49 -33 -107 -43 -212 -34 -326 26 -866 248 -1209 497 -70 51 -59 20
-108 289 -11 63 -33 167 -49 230 -118 472 -160 893 -110 1102 11 46 33 160 50
253 36 196 38 199 170 284 159 102 328 168 504 196 82 13 116 14 190 5 50 -6
101 -13 114 -17 31 -7 28 8 -10 44 -133 126 -369 133 -598 18 -90 -45 -234
-150 -282 -204 -33 -38 -39 -42 -34 -21 9 38 64 284 87 385 34 146 108 382
157 500 57 135 78 156 237 235 137 67 199 83 340 85 148 3 148 3 141 20 -7 20
2 19 39 -3 17 -10 56 -24 87 -32 69 -16 80 -10 158 79 57 65 73 78 42 34z
m-2080 -2050 c67 -37 91 -68 113 -149 18 -68 66 -204 163 -461 27 -73 48 -133
45 -133 -19 0 -88 47 -117 81 -42 49 -51 87 -37 149 25 110 -2 184 -104 283
-142 138 -256 153 -326 41 -20 -33 -24 -52 -24 -124 0 -89 31 -206 61 -230 10
-9 8 1 -6 33 -31 70 -47 195 -31 246 29 99 107 134 197 91 53 -26 178 -139
200 -181 17 -34 18 -75 2 -150 -9 -44 -9 -66 0 -97 19 -63 95 -128 183 -155 9
-3 30 -43 49 -94 18 -48 45 -114 60 -146 22 -46 25 -60 14 -64 -20 -7 -201 15
-254 31 -236 73 -460 288 -543 521 -17 49 -21 83 -21 185 0 114 2 131 28 193
16 37 47 88 70 113 35 38 49 46 91 53 65 9 125 -2 187 -36z m3224 -968 c-3 -8
-2 -15 2 -15 5 0 14 -15 20 -34 7 -19 19 -37 27 -40 13 -4 50 -76 108 -206 11
-25 26 -56 32 -70 7 -14 24 -61 39 -105 15 -44 31 -89 36 -100 4 -11 22 -56
39 -100 29 -77 36 -100 62 -226 11 -53 8 -130 -7 -209 -8 -41 -71 -140 -89
-140 -7 0 -15 -7 -19 -15 -3 -8 -14 -15 -25 -15 -10 0 -21 -7 -25 -15 -3 -8
-14 -15 -25 -15 -11 0 -21 -5 -23 -11 -2 -5 -23 -15 -47 -20 -67 -15 -95 2
-216 134 -19 21 -43 58 -54 83 -19 43 -20 49 -6 107 26 109 30 243 10 333 -19
88 -70 231 -91 255 -17 19 -18 33 -2 23 7 -5 8 -3 4 5 -5 8 11 34 42 69 67 78
141 193 176 275 15 37 30 67 33 67 3 0 3 -7 -1 -15z m-1916 -726 c269 -168
430 -257 521 -290 82 -29 86 -32 81 -57 -2 -15 -19 -101 -38 -190 -19 -90 -37
-209 -41 -263 l-6 -99 -21 17 c-19 16 -18 15 2 -8 15 -17 22 -38 22 -65 0 -49
35 -213 48 -226 6 -6 4 19 -4 54 -15 70 -17 160 -8 296 l7 91 41 -29 c65 -45
148 -130 193 -195 74 -110 77 -118 80 -255 l4 -125 -46 -33 c-64 -46 -105
-106 -104 -151 1 -33 1 -34 8 -10 5 14 14 36 21 50 15 29 101 119 113 119 14
0 -2 -209 -22 -295 -25 -104 -37 -119 -118 -143 -135 -40 -122 -42 -210 40
-43 41 -122 111 -175 157 -54 45 -98 84 -98 86 0 12 188 -69 212 -92 l30 -28
-12 27 c-15 31 -79 67 -175 98 -72 22 -84 30 -420 281 -150 112 -156 117 -180
184 -36 99 -136 235 -240 326 l-60 52 -1 121 c-1 126 -18 200 -78 346 l-22 55
28 80 c15 44 28 90 28 102 0 12 4 24 9 27 9 6 28 -99 37 -209 23 -288 36 -352
91 -457 41 -79 158 -204 227 -243 44 -26 155 -59 164 -50 2 2 -20 16 -50 31
-74 37 -161 99 -184 132 -53 73 -111 230 -99 265 3 7 16 89 30 182 26 172 33
368 19 498 l-7 58 119 -79 c66 -44 193 -126 284 -183z m2058 -656 c-16 -2 -40
-2 -55 0 -16 2 -3 4 27 4 30 0 43 -2 28 -4z m-84 -43 l7 -25 -15 25 c-17 28
-21 50 -7 35 5 -6 12 -21 15 -35z m-1105 -1359 c13 -23 -2 -31 -42 -24 -33 6
-34 15 -4 29 32 16 35 16 46 -5z m125 -156 c29 -49 77 -128 105 -174 54 -90
60 -115 36 -161 -13 -26 -21 -30 -54 -30 -22 0 -47 3 -56 6 -9 4 -38 50 -64
103 -27 53 -79 150 -115 216 -93 169 -84 180 20 22 36 -55 49 -68 67 -65 20 3
22 8 19 57 -2 32 -13 73 -27 102 -54 106 -16 64 69 -76z m-91 71 c19 -46 38
-136 28 -136 -3 0 -23 26 -43 58 -20 31 -46 71 -58 88 l-20 31 38 0 c35 0 39
-3 55 -41z m-3775 -491 c-3 -3 -9 2 -12 12 -6 14 -5 15 5 6 7 -7 10 -15 7 -18z
m4053 -53 c18 -31 85 -145 149 -252 222 -371 313 -550 374 -738 41 -127 42
-132 20 -132 -8 0 -12 -5 -9 -10 4 -6 10 -8 15 -5 14 8 18 -6 40 -116 39 -197
54 -469 26 -469 -17 0 -26 -22 -26 -62 0 -17 -2 -29 -5 -26 -3 2 -7 63 -10
134 -13 347 -34 452 -153 794 -26 73 -162 334 -259 495 -50 83 -127 213 -172
289 -80 138 -81 139 -58 151 12 6 25 10 29 8 4 -2 21 -29 39 -61z m-4100 1
c13 -17 13 -17 -6 -3 -11 8 -22 16 -24 17 -2 2 0 3 6 3 6 0 17 -8 24 -17z
m-89 -39 c-9 -16 -10 -14 -9 8 1 15 6 23 11 18 4 -4 4 -16 -2 -26z m51 -4 c-6
-21 -21 -35 -29 -27 -4 4 25 47 32 47 1 0 0 -9 -3 -20z m-57 -82 c-9 -12 -16
-19 -16 -15 0 11 24 47 28 42 2 -2 -3 -14 -12 -27z m257 -7 c-4 -4 -28 -23
-53 -43 -58 -46 -118 -104 -153 -148 -20 -25 -24 -28 -16 -10 16 33 173 187
199 195 11 4 17 11 14 17 -5 7 -2 8 5 3 7 -4 9 -10 4 -14z m4882 -29 c-3 -3
-11 0 -18 7 -9 10 -8 11 6 5 10 -3 15 -9 12 -12z m-5085 -6 c0 -3 -4 -8 -10
-11 -5 -3 -10 -1 -10 4 0 6 5 11 10 11 6 0 10 -2 10 -4z m-235 -36 c3 -6 -1
-7 -9 -4 -18 7 -21 14 -7 14 6 0 13 -4 16 -10z m29 -5 c-4 -8 -8 -15 -10 -15
-2 0 -4 7 -4 15 0 8 4 15 10 15 5 0 7 -7 4 -15z m38 -17 c-9 -9 -15 -9 -24 1
-11 10 -10 11 5 6 10 -5 17 -2 17 6 0 7 3 9 7 6 4 -4 1 -13 -5 -19z m51 -8
c-10 -11 -19 -20 -21 -20 -1 0 2 9 8 20 6 11 15 20 20 20 6 0 2 -9 -7 -20z
m-133 6 c0 -2 -7 -7 -16 -10 -8 -3 -12 -2 -9 4 6 10 25 14 25 6z m7 -31 c0 -8
-4 -12 -9 -9 -4 3 -8 9 -8 15 0 5 4 9 8 9 5 0 9 -7 9 -15z m60 -37 c-3 -8 -6
-5 -6 6 -1 11 2 17 5 13 3 -3 4 -12 1 -19z m-50 -20 c-3 -8 -6 -5 -6 6 -1 11
2 17 5 13 3 -3 4 -12 1 -19z m-117 -23 c0 -2 -10 -10 -22 -16 -21 -11 -22 -11
-9 4 13 16 31 23 31 12z m30 -19 c0 -3 -4 -8 -10 -11 -5 -3 -10 -1 -10 4 0 6
5 11 10 11 6 0 10 -2 10 -4z m263 -55 c-16 -27 -30 -48 -32 -46 -4 5 48 95 54
95 3 0 -7 -22 -22 -49z m-173 15 c0 -2 -8 -10 -17 -17 -16 -13 -17 -12 -4 4
13 16 21 21 21 13z m50 -42 c0 -8 -19 -13 -24 -6 -3 5 1 9 9 9 8 0 15 -2 15
-3z m3189 -30 c14 -12 -19 -1 -35 12 -18 14 -18 14 6 3 14 -6 27 -13 29 -15z
m-3108 -31 c-12 -20 -14 -14 -5 12 4 9 9 14 11 11 3 -2 0 -13 -6 -23z m-24
-75 c-3 -8 -6 -5 -6 6 -1 11 2 17 5 13 3 -3 4 -12 1 -19z m-17 -73 c0 -8 -4
-15 -10 -15 -5 0 -7 7 -4 15 4 8 8 15 10 15 2 0 4 -7 4 -15z m-379 -62 c-4
-28 -6 -32 -9 -15 -3 22 3 52 11 52 1 0 1 -17 -2 -37z m366 0 c-3 -10 -5 -4
-5 12 0 17 2 24 5 18 2 -7 2 -21 0 -30z m-10 -60 c-3 -10 -5 -4 -5 12 0 17 2
24 5 18 2 -7 2 -21 0 -30z m-367 -55 l-5 -73 -3 59 c-3 52 1 86 10 86 2 0 1
-33 -2 -72z m357 -85 c-2 -21 -4 -6 -4 32 0 39 2 55 4 38 2 -18 2 -50 0 -70z
m-360 -190 c-2 -16 -4 -5 -4 22 0 28 2 40 4 28 2 -13 2 -35 0 -50z m370 -50
c-2 -16 -4 -5 -4 22 0 28 2 40 4 28 2 -13 2 -35 0 -50z m-360 -45 c-2 -13 -4
-5 -4 17 -1 22 1 32 4 23 2 -10 2 -28 0 -40z m10 -75 c-3 -10 -5 -2 -5 17 0
19 2 27 5 18 2 -10 2 -26 0 -35z m360 -5 c-3 -7 -5 -2 -5 12 0 14 2 19 5 13 2
-7 2 -19 0 -25z m-339 -103 c0 -25 -2 -24 -9 10 -10 51 -10 92 1 50 4 -16 8
-43 8 -60z m349 53 c-3 -7 -5 -2 -5 12 0 14 2 19 5 13 2 -7 2 -19 0 -25z m10
-85 c-3 -10 -5 -2 -5 17 0 19 2 27 5 18 2 -10 2 -26 0 -35z m-350 -25 c-3 -8
-6 -5 -6 6 -1 11 2 17 5 13 3 -3 4 -12 1 -19z m360 -30 c-3 -7 -5 -2 -5 12 0
14 2 19 5 13 2 -7 2 -19 0 -25z m-347 -18 c0 -11 -2 -20 -4 -20 -2 0 -6 9 -9
20 -3 11 -1 20 4 20 5 0 9 -9 9 -20z m7 -82 c-3 -8 -6 -5 -6 6 -1 11 2 17 5
13 3 -3 4 -12 1 -19z m363 -22 c0 -26 -6 -18 -14 19 -5 22 -4 26 4 15 5 -8 10
-24 10 -34z m-347 -41 c5 -28 4 -34 -3 -20 -8 19 -14 73 -6 64 2 -2 6 -22 9
-44z m14 -102 c-3 -10 -5 -4 -5 12 0 17 2 24 5 18 2 -7 2 -21 0 -30z m350 5
c-3 -8 -6 -5 -6 6 -1 11 2 17 5 13 3 -3 4 -12 1 -19z m4849 -35 c-5 -39 -6
-41 -15 -18 -5 11 -4 25 1 33 15 18 17 15 14 -15z m-5189 -15 c-3 -8 -6 -5 -6
6 -1 11 2 17 5 13 3 -3 4 -12 1 -19z m21 -93 l1 -20 -9 20 c-5 11 -8 31 -8 45
l0 25 8 -25 c4 -14 8 -34 8 -45z m9 -87 c-3 -7 -5 -2 -5 12 0 14 2 19 5 13 2
-7 2 -19 0 -25z m350 0 c-3 -7 -5 -2 -5 12 0 14 2 19 5 13 2 -7 2 -19 0 -25z"/>
<path d="M5583 7559 c-24 -4 -59 -16 -80 -26 -49 -23 -153 -127 -153 -153 0
-25 -3 -25 72 3 187 70 356 59 548 -38 30 -15 69 -38 87 -51 38 -29 43 -29 43
-5 0 25 -65 110 -118 155 -60 49 -153 91 -244 110 -84 17 -93 18 -155 5z"/>
<path d="M3766 7273 c-6 -14 -5 -15 5 -6 7 7 10 15 7 18 -3 3 -9 -2 -12 -12z"/>
<path d="M5243 7095 c-53 -167 -75 -274 -53 -260 6 3 10 16 10 28 0 28 22 117
56 221 14 43 24 86 22 95 -2 9 -18 -29 -35 -84z"/>
<path d="M5550 7076 c-60 -16 -135 -68 -167 -117 -35 -53 -24 -59 16 -9 95
118 256 146 403 70 34 -17 63 -29 65 -26 9 8 -88 58 -148 77 -69 22 -105 23
-169 5z"/>
<path d="M5936 7012 c-3 -5 -20 -16 -38 -25 -30 -14 -41 -14 -123 4 -98 21
-122 19 -204 -18 -102 -44 -167 -113 -204 -213 -24 -67 -49 -171 -42 -178 3
-3 8 3 11 13 3 11 14 38 24 60 l19 40 -7 -35 c-11 -56 -7 -191 7 -247 27 -108
102 -184 184 -185 52 -1 86 19 121 72 57 86 70 213 36 346 -31 121 -96 200
-169 206 l-33 2 28 23 c64 51 191 51 246 0 13 -12 36 -30 52 -40 15 -11 40
-44 54 -75 24 -50 27 -70 27 -164 0 -68 4 -107 10 -105 6 2 21 30 35 63 29 72
33 172 7 221 -19 36 -21 47 -7 38 13 -8 81 11 105 29 18 13 13 14 -50 9 l-70
-5 -38 46 c-35 42 -36 46 -19 55 21 11 56 60 49 68 -3 2 -8 0 -11 -5z m-286
-272 c13 -13 20 -33 20 -60 0 -34 -4 -42 -26 -50 -35 -14 -41 -13 -64 10 -23
23 -28 88 -8 108 18 18 56 14 78 -8z m-99 -382 c-15 -6 -14 -7 0 -7 23 -1 30
-23 13 -39 -13 -12 -18 -8 -15 10 0 4 -6 5 -14 1 -12 -4 -13 -9 -4 -19 8 -10
8 -14 0 -14 -12 0 -13 3 -13 53 -1 17 -5 37 -10 43 -5 7 7 4 25 -5 27 -12 31
-17 18 -23z m-66 -58 l30 -35 -28 25 c-16 14 -33 34 -39 45 -11 21 -10 20 37
-35z m108 -47 c-7 -2 -19 -2 -25 0 -7 3 -2 5 12 5 14 0 19 -2 13 -5z"/>
<path d="M4111 6925 c-95 -27 -171 -74 -299 -186 -31 -27 -32 -31 -18 -51 14
-19 12 -24 -27 -70 -42 -50 -42 -50 -89 -44 -53 7 -69 -10 -19 -20 30 -6 47
-38 35 -68 -9 -23 -50 -46 -97 -55 l-42 -8 30 -12 c16 -7 40 -10 52 -6 21 5
23 2 23 -28 0 -49 28 -137 57 -179 32 -47 50 -50 26 -5 -10 19 -18 64 -21 114
-5 99 15 158 81 235 118 137 284 206 418 174 112 -26 181 -85 235 -201 l23
-50 0 46 c1 26 -6 64 -15 85 l-16 39 26 -24 c36 -33 33 -17 -6 36 -85 115
-109 134 -203 159 -64 17 -127 17 -190 0 -60 -16 -191 -80 -223 -109 -21 -20
-23 -20 -39 -4 -16 16 -15 19 17 47 86 75 191 136 275 159 55 15 169 14 233
-3 29 -8 78 -29 110 -46 56 -32 56 -32 33 -6 -14 14 -54 40 -90 58 -54 26 -80
32 -146 35 -50 2 -100 -3 -134 -12z"/>
<path d="M3945 6643 c-49 -25 -92 -72 -117 -127 -18 -41 -23 -69 -23 -142 0
-86 2 -94 42 -175 50 -100 91 -143 155 -160 96 -26 200 41 232 150 47 159 -17
381 -129 446 -49 29 -114 32 -160 8z m207 -70 c43 -49 24 -123 -31 -123 -52 0
-87 69 -57 115 20 30 65 34 88 8z m-84 -427 c2 -21 -2 -36 -8 -36 -6 0 -9 -4
-6 -9 4 -5 -5 -4 -19 2 -14 7 -25 19 -24 27 0 10 2 11 6 3 2 -7 9 -13 14 -13
6 0 5 8 -1 20 -9 16 -8 18 5 14 14 -6 20 6 16 29 -1 5 2 6 7 3 4 -2 9 -21 10
-40z m-63 -84 c-3 -3 -11 0 -18 7 -9 10 -8 11 6 5 10 -3 15 -9 12 -12z"/>
<path d="M5850 6295 c-7 -9 -11 -18 -8 -20 3 -3 11 1 18 10 7 9 11 18 8 20 -3
3 -11 -1 -18 -10z"/>
<path d="M5791 6239 c-18 -11 -65 -31 -104 -44 -50 -17 -63 -25 -44 -25 31 0
173 56 183 72 11 18 -2 17 -35 -3z"/>
<path d="M5210 6140 c0 -16 79 -107 133 -153 49 -41 57 -54 57 -82 0 -40 -34
-135 -67 -187 -27 -44 -28 -48 -8 -48 39 0 105 139 105 223 0 36 -7 46 -110
147 -60 59 -110 104 -110 100z"/>
<path d="M3930 5971 c0 -6 12 -12 28 -12 15 -1 39 -3 54 -5 15 -1 30 1 33 7 4
5 -13 9 -39 9 -24 0 -51 3 -60 6 -9 3 -16 1 -16 -5z"/>
<path d="M4118 5973 c-21 -2 -38 -8 -38 -13 0 -11 71 -1 85 11 6 6 6 8 0 7 -6
-1 -27 -3 -47 -5z"/>
<path d="M5125 5710 c-3 -6 5 -10 19 -10 14 0 28 5 31 10 3 6 -5 10 -19 10
-14 0 -28 -4 -31 -10z"/>
<path d="M5490 5432 c0 -23 -85 -89 -169 -130 -66 -33 -88 -48 -73 -50 25 -4
202 85 252 127 29 25 32 31 21 45 -14 17 -31 21 -31 8z"/>
<path d="M4440 5325 c-10 -13 -5 -18 34 -36 129 -57 358 -95 519 -86 165 10
157 24 -10 19 -125 -4 -165 -1 -258 18 -60 12 -134 34 -165 48 -30 15 -67 32
-82 39 -22 10 -28 10 -38 -2z"/>
<path d="M5190 5034 c-33 -17 -65 -24 -122 -26 -43 -2 -78 -7 -78 -12 0 -5 38
-7 83 -4 68 3 93 9 130 32 26 15 47 29 47 31 0 8 -13 3 -60 -21z"/>
<path d="M2674 6176 c-19 -19 -34 -40 -34 -47 0 -9 3 -10 8 -4 10 14 32 17 32
5 0 -14 -37 -50 -44 -43 -3 3 0 -6 7 -20 9 -20 17 -24 41 -21 38 5 43 11 28
34 -18 30 -14 35 10 14 16 -13 19 -14 10 -2 -10 13 -10 17 0 22 7 3 1 5 -14 3
-19 -3 -28 1 -32 15 -3 14 0 18 10 14 8 -3 14 -1 14 4 0 14 -24 12 -38 -2 -8
-8 -12 -8 -12 -1 0 15 27 36 39 29 5 -3 11 1 14 8 6 14 19 14 87 1 22 -5 23
-4 7 6 -11 6 -37 13 -59 15 -35 3 -45 -1 -74 -30z m25 -93 c7 -15 5 -18 -15
-19 -13 -1 -24 2 -24 7 0 5 8 9 18 10 14 0 14 2 -3 9 -17 7 -17 9 -3 9 10 1
22 -7 27 -16z"/>
<path d="M2838 6163 c10 -4 10 -8 1 -19 -7 -8 -9 -17 -5 -21 3 -3 6 -1 6 5 0
7 9 12 20 12 11 0 20 -5 20 -11 0 -5 -5 -7 -12 -3 -7 4 -8 3 -4 -4 4 -7 1 -12
-7 -12 -7 0 -14 -7 -14 -15 0 -21 8 -19 35 9 l22 24 -26 21 c-15 12 -32 21
-38 20 -6 0 -6 -3 2 -6z"/>
<path d="M2804 6119 c-3 -6 -1 -16 4 -21 8 -8 11 -5 9 11 -1 24 -3 25 -13 10z"/>
<path d="M2894 6092 c4 -7 1 -12 -9 -12 -9 0 -13 -4 -10 -10 3 -5 10 -10 15
-10 13 0 20 29 8 36 -7 4 -8 3 -4 -4z"/>
<path d="M2838 6015 c-29 -29 -48 -86 -48 -147 0 -58 41 -140 98 -195 50 -49
156 -103 198 -102 26 0 24 2 -12 13 -99 31 -194 108 -238 193 -16 33 -21 134
-7 183 8 28 68 73 84 63 6 -3 7 -1 3 5 -12 20 -52 13 -78 -13z"/>
<path d="M6091 5361 c-9 -16 -8 -18 8 -14 12 3 17 11 14 19 -7 18 -10 18 -22
-5z"/>
<path d="M4027 4753 c-4 -3 -7 -11 -7 -17 0 -6 4 -5 9 3 7 11 14 10 39 -8 17
-11 34 -21 38 -21 4 0 -7 11 -26 25 -36 27 -43 29 -53 18z"/>
<path d="M4059 4697 c7 -9 21 -16 30 -15 9 2 15 -2 14 -8 -1 -6 4 -11 12 -11
7 0 11 6 8 14 -5 12 -18 17 -37 14 -4 -1 -16 4 -25 11 -14 12 -15 11 -2 -5z"/>
<path d="M4162 4674 c10 -10 20 -15 24 -12 3 4 -5 12 -18 18 -22 12 -22 12 -6
-6z"/>
<path d="M4180 4643 c18 -9 11 -33 -7 -26 -10 3 2 -9 27 -28 70 -54 100 -70
112 -63 7 4 8 3 4 -4 -9 -15 130 -106 149 -98 8 3 12 11 10 18 -3 8 3 13 19
13 17 0 24 -5 23 -17 -1 -10 -7 -18 -15 -18 -8 0 -10 5 -6 13 5 8 2 7 -10 -2
-20 -17 -16 -22 47 -55 55 -30 72 -32 63 -11 -3 8 -1 15 4 15 6 0 10 -9 10
-20 0 -23 64 -59 122 -70 40 -8 45 -3 44 40 -1 19 -6 25 -23 24 -12 0 -20 3
-18 6 4 7 -74 35 -87 32 -5 -1 -8 2 -8 8 0 6 -4 10 -9 10 -5 0 -49 23 -98 51
-48 28 -113 65 -143 81 -30 17 -62 36 -70 43 -8 7 -37 25 -65 40 -27 15 -41
20 -31 11 11 -9 23 -16 28 -16 4 0 8 -8 8 -18 0 -10 5 -23 11 -29 8 -8 8 -13
-1 -18 -7 -4 -14 1 -17 14 -3 11 -9 18 -14 15 -16 -9 -43 14 -44 37 0 12 -6
23 -13 25 -7 1 -8 0 -2 -3z m171 -98 c9 6 9 3 1 -11 -8 -14 -6 -21 6 -32 15
-11 14 -12 -6 -2 -12 6 -20 15 -17 19 2 5 -2 14 -10 21 -8 7 -15 18 -15 24 0
6 7 3 15 -8 8 -10 19 -15 26 -11z m54 -46 c-4 -11 -1 -26 5 -34 17 -20 5 -19
-14 1 -12 11 -13 20 -6 33 5 10 6 22 2 26 -4 5 -1 5 6 1 7 -5 10 -16 7 -27z
m36 -16 c12 -16 12 -17 -2 -6 -9 7 -20 9 -24 5 -5 -4 -5 -1 -1 6 9 16 11 15
27 -5z m103 -54 c-3 -5 -10 -7 -15 -3 -5 3 -7 10 -3 15 3 5 10 7 15 3 5 -3 7
-10 3 -15z m44 -26 c16 -16 16 -16 -1 -10 -10 4 -25 7 -33 7 -8 0 -14 5 -14
10 0 16 30 12 48 -7z m-58 -3 c0 -5 -2 -10 -4 -10 -3 0 -8 5 -11 10 -3 6 -1
10 4 10 6 0 11 -4 11 -10z m210 -85 c24 -14 24 -15 2 -12 -12 2 -28 9 -34 15
-16 16 2 14 32 -3z"/>
<path d="M5213 2233 c-7 -2 -13 -15 -13 -27 0 -50 65 -66 76 -19 10 37 -25 62
-63 46z"/>
<path d="M5355 1960 c-3 -5 -2 -10 4 -10 5 0 13 5 16 10 3 6 2 10 -4 10 -5 0
-13 -4 -16 -10z"/>
<path d="M5430 1820 c0 -5 5 -10 10 -10 6 0 10 5 10 10 0 6 -4 10 -10 10 -5 0
-10 -4 -10 -10z"/>
<path d="M5490 1730 c0 -5 5 -10 10 -10 6 0 10 5 10 10 0 6 -4 10 -10 10 -5 0
-10 -4 -10 -10z"/>
<path d="M5577 1590 c-3 -11 -2 -20 3 -20 12 0 21 28 11 35 -5 2 -11 -4 -14
-15z"/>
<path d="M5607 1533 c-12 -12 -7 -22 8 -17 8 4 15 10 15 15 0 11 -14 12 -23 2z"/>
<path d="M5660 1444 c0 -8 5 -12 10 -9 6 4 8 11 5 16 -9 14 -15 11 -15 -7z"/>
<path d="M5695 1350 c4 -6 11 -8 16 -5 14 9 11 15 -7 15 -8 0 -12 -5 -9 -10z"/>
<path d="M5755 1240 c-3 -5 1 -10 10 -10 9 0 13 5 10 10 -3 6 -8 10 -10 10 -2
0 -7 -4 -10 -10z"/>
<path d="M5810 1130 c-9 -16 -8 -18 5 -14 8 4 15 12 15 20 0 20 -7 17 -20 -6z"/>
<path d="M5850 1040 c0 -19 3 -21 12 -12 9 9 9 15 0 24 -9 9 -12 7 -12 -12z"/>
<path d="M5885 899 c-10 -15 3 -25 16 -12 7 7 7 13 1 17 -6 3 -14 1 -17 -5z"/>
<path d="M5926 741 c-4 -7 -5 -15 -2 -18 9 -9 19 4 14 18 -4 11 -6 11 -12 0z"/>
<path d="M5920 700 c0 -5 5 -10 10 -10 6 0 10 5 10 10 0 6 -4 10 -10 10 -5 0
-10 -4 -10 -10z"/>
<path d="M5940 590 c0 -5 5 -10 10 -10 6 0 10 5 10 10 0 6 -4 10 -10 10 -5 0
-10 -4 -10 -10z"/>
<path d="M5950 506 c0 -2 7 -7 16 -10 8 -3 12 -2 9 4 -6 10 -25 14 -25 6z"/>
<path d="M5960 470 c-13 -8 -12 -10 3 -10 9 0 17 5 17 10 0 12 -1 12 -20 0z"/>
<path d="M5970 370 c-8 -5 -11 -12 -7 -16 4 -4 13 -2 19 4 15 15 7 24 -12 12z"/>
<path d="M5960 329 c0 -5 5 -7 10 -4 6 3 10 8 10 11 0 2 -4 4 -10 4 -5 0 -10
-5 -10 -11z"/>
<path d="M5158 9223 c6 -2 18 -2 25 0 6 3 1 5 -13 5 -14 0 -19 -2 -12 -5z"/>
<path d="M5210 9200 c0 -5 12 -10 28 -10 21 0 24 2 12 10 -20 13 -40 13 -40 0z"/>
<path d="M5678 8953 c6 -2 18 -2 25 0 6 3 1 5 -13 5 -14 0 -19 -2 -12 -5z"/>
<path d="M5950 8780 c0 -5 5 -10 11 -10 5 0 7 5 4 10 -3 6 -8 10 -11 10 -2 0
-4 -4 -4 -10z"/>
<path d="M6710 7730 c0 -5 5 -10 11 -10 5 0 7 5 4 10 -3 6 -8 10 -11 10 -2 0
-4 -4 -4 -10z"/>
<path d="M6732 7685 c0 -16 2 -22 5 -12 2 9 2 23 0 30 -3 6 -5 -1 -5 -18z"/>
<path d="M6751 7614 c0 -11 3 -14 6 -6 3 7 2 16 -1 19 -3 4 -6 -2 -5 -13z"/>
<path d="M1871 6583 c0 -5 4 -17 9 -28 8 -18 9 -17 9 8 1 15 -3 27 -9 27 -5 0
-10 -3 -9 -7z"/>
<path d="M9820 3661 c0 -6 4 -13 10 -16 6 -3 7 1 4 9 -7 18 -14 21 -14 7z"/>
<path d="M9754 2952 c-6 -4 -30 -36 -55 -72 -43 -64 -44 -67 -46 -153 -1 -50
3 -85 8 -81 8 5 14 -17 10 -39 -2 -15 20 -47 31 -44 7 1 14 -7 16 -18 2 -11 9
-24 14 -30 8 -7 9 -6 4 3 -4 6 -5 12 -3 12 14 0 60 -98 68 -148 31 -173 26
-191 -87 -321 -17 -20 -57 -74 -88 -120 -55 -81 -56 -85 -56 -152 0 -63 -2
-69 -21 -69 -26 0 -42 17 -57 59 -30 85 -4 228 59 328 42 67 49 110 24 153 -7
14 -27 52 -44 85 -17 33 -46 77 -65 98 -19 20 -33 37 -30 37 2 0 -23 52 -57
116 l-61 116 16 65 c11 45 27 80 52 109 19 24 28 41 20 38 -39 -15 -96 -136
-96 -205 0 -18 30 -85 62 -139 11 -19 27 -53 34 -74 8 -21 32 -58 53 -81 22
-24 51 -67 66 -96 14 -30 32 -65 40 -79 23 -40 18 -71 -22 -130 -20 -30 -44
-82 -54 -115 l-16 -60 -51 -3 c-29 -2 -52 0 -52 4 0 29 41 129 72 176 31 47
38 66 38 107 0 56 -22 111 -52 130 -11 7 -21 11 -22 9 -1 -2 -14 -18 -29 -36
-15 -19 -27 -46 -27 -62 0 -16 -4 -31 -9 -35 -6 -3 -25 -27 -42 -53 -109 -158
-101 -142 -97 -205 4 -55 3 -58 -21 -63 -78 -18 -111 -29 -161 -55 -100 -52
-130 -92 -130 -179 0 -27 -2 -50 -4 -50 -2 0 -23 9 -47 20 -54 24 -82 25 -148
3 -71 -23 -141 -92 -171 -169 -33 -85 -32 -229 2 -336 52 -158 140 -274 255
-336 32 -17 75 -34 96 -37 l38 -7 -158 -96 c-87 -52 -193 -114 -235 -139 -73
-41 -101 -74 -81 -93 8 -9 625 -188 858 -250 242 -65 409 -102 436 -96 34 6
420 265 647 433 85 64 101 79 90 90 -8 7 -105 31 -217 53 -112 21 -205 41
-207 42 -1 2 4 53 12 113 20 158 43 552 44 746 0 206 -3 213 -130 276 -79 40
-131 54 -292 78 -21 3 -38 9 -38 13 0 4 40 58 89 120 96 121 111 158 97 240
-3 20 -10 63 -15 94 -9 59 -29 99 -87 175 -43 57 -68 133 -62 193 4 37 16 65
53 119 28 41 57 72 69 74 20 4 20 4 1 5 -11 1 -25 -2 -31 -6z m-304 -642 c31
-61 26 -110 -17 -177 -47 -72 -81 -176 -89 -270 -5 -54 -12 -77 -26 -90 -19
-17 -21 -17 -43 11 -13 16 -26 43 -29 60 -11 53 -13 60 -25 89 -21 53 -14 91
32 157 23 34 47 69 52 78 6 10 20 32 33 49 12 17 22 40 22 51 0 21 45 82 61
82 5 0 18 -18 29 -40z m19 -437 c-1 -33 -2 -35 -8 -13 -6 22 -12 25 -54 24
-33 -1 -47 3 -47 13 0 9 16 13 55 13 l55 0 -1 -37z m370 -4 c91 -23 152 -53
197 -97 32 -31 34 -37 33 -95 -1 -34 -3 -54 -6 -44 -4 17 -6 17 -36 -1 -18
-11 -54 -28 -82 -38 -27 -10 -61 -24 -75 -31 -14 -7 -35 -13 -48 -13 -13 0
-20 -4 -17 -10 3 -5 1 -10 -4 -10 -18 0 -12 -28 7 -33 13 -4 13 -5 -4 -6 -21
-1 -22 -6 -23 -113 -4 -250 -9 -388 -19 -493 -6 -61 -16 -163 -22 -229 -7 -65
-18 -139 -26 -165 -7 -25 -14 -47 -14 -48 0 -3 75 19 85 25 11 7 17 9 40 11 8
0 15 9 16 19 0 9 3 12 5 5 8 -18 33 -4 27 15 -4 14 -3 15 6 2 10 -15 26 -7 26
13 0 7 5 12 12 12 7 0 18 6 25 14 11 12 10 13 -5 8 -11 -4 -16 -3 -12 3 3 6
-1 10 -9 10 -9 0 -16 8 -16 18 0 10 3 13 8 6 11 -16 52 -36 52 -25 0 5 -3 11
-7 14 -5 2 -2 2 5 0 9 -2 11 4 7 20 -4 15 -3 18 3 9 7 -10 11 -5 16 18 9 47 8
62 -6 54 -7 -4 -8 -3 -4 5 4 6 12 8 18 5 7 -5 9 0 6 13 -3 12 -2 27 3 34 13
21 11 -25 -5 -96 -16 -74 -33 -103 -90 -143 -155 -112 -499 -134 -728 -46
-151 58 -180 102 -208 321 -41 324 -70 785 -56 897 10 79 53 125 155 166 85
35 151 48 151 31 0 -6 -12 -11 -27 -11 -35 -1 -99 -33 -96 -48 2 -6 -4 -9 -12
-6 -19 8 -82 -44 -96 -78 -35 -84 47 -135 279 -173 110 -18 328 -21 427 -5
122 19 249 66 289 105 20 21 20 56 0 81 -15 18 -15 18 -9 -9 6 -31 -7 -62 -33
-76 -12 -7 -33 -2 -72 16 -45 21 -229 62 -277 63 -21 0 -17 106 5 135 16 23
21 24 92 18 41 -3 108 -14 149 -24z m-423 2 c-4 -5 -1 -11 6 -13 9 -3 8 -10
-5 -22 -10 -10 -15 -21 -12 -24 3 -4 10 0 15 8 7 10 10 11 10 3 0 -7 -8 -22
-17 -33 -13 -14 -19 -16 -25 -7 -5 8 -8 7 -8 -5 0 -18 -11 -23 -23 -11 -4 3 3
14 15 22 31 21 35 51 8 51 -11 0 -20 4 -20 10 0 6 9 6 25 0 16 -6 25 -6 25 0
0 6 -6 10 -12 10 -9 0 -8 4 2 10 19 12 23 12 16 1z m-216 -23 c0 -6 3 -8 7 -5
8 9 32 -24 32 -43 0 -8 -5 -4 -10 9 -8 19 -12 22 -22 12 -9 -9 -9 -14 3 -21 8
-5 11 -10 5 -10 -5 0 -17 5 -25 11 -11 8 -12 12 -2 16 18 7 15 19 -7 20 -20 2
-24 -26 -6 -39 6 -5 5 -8 -3 -8 -9 0 -9 -7 3 -30 14 -27 5 -45 -10 -20 -3 5
-13 7 -23 4 -15 -5 -15 -4 1 9 15 12 15 15 3 20 -9 4 -18 2 -21 -3 -8 -13 -25
-13 -25 0 0 6 6 10 14 10 7 0 19 6 25 14 10 11 8 16 -8 21 -12 3 -21 11 -21
16 0 13 14 11 29 -3 10 -9 12 -9 7 -1 -3 6 2 16 11 22 24 14 43 14 43 -1z
m-102 -65 c-9 -10 -13 -24 -11 -30 6 -18 -7 -16 -27 2 -16 15 -17 14 -17 -9 0
-14 4 -23 9 -20 5 3 15 1 22 -5 10 -9 15 -8 20 4 3 8 11 15 18 14 10 0 10 -2
1 -6 -7 -2 -13 -9 -13 -14 0 -5 13 -3 30 6 24 12 30 13 37 2 12 -19 78 2 79
26 2 24 -27 22 -33 -3 -5 -19 -6 -20 -19 -3 -16 22 -18 43 -3 43 5 0 8 -4 5
-8 -2 -4 11 -6 31 -4 32 4 35 3 28 -18 -7 -21 -5 -22 31 -16 22 3 57 7 79 8
27 2 46 10 58 25 21 27 37 30 37 7 0 -8 -4 -12 -10 -9 -5 3 -16 3 -22 -2 -8
-5 2 -10 27 -14 35 -4 29 -6 -40 -13 -111 -11 -242 -42 -300 -71 -27 -14 -51
-25 -54 -25 -16 0 -61 50 -61 67 0 25 37 59 60 55 10 -2 20 4 23 13 4 8 12 15
18 15 8 0 7 -6 -3 -17z m-251 -170 c38 -20 38 -20 41 -86 2 -37 1 -67 -1 -67
-3 0 -18 7 -33 15 -33 17 -97 20 -124 5 -11 -6 -32 -32 -47 -58 -25 -42 -28
-56 -28 -142 0 -84 3 -102 28 -152 15 -31 45 -72 67 -92 48 -43 136 -89 160
-83 13 3 18 -1 18 -17 -1 -11 4 -50 9 -85 l10 -63 -40 6 c-66 11 -160 62 -211
114 -65 67 -101 123 -137 217 -28 71 -32 92 -33 190 -1 99 2 116 25 165 64
137 184 191 296 133z m1219 -210 c-4 -115 -11 -255 -17 -313 -5 -58 -12 -133
-15 -168 -3 -35 -10 -84 -15 -110 l-8 -47 4 55 c2 30 7 91 10 135 3 44 8 89
10 100 2 11 7 90 10 175 4 85 8 169 10 185 2 17 4 67 4 113 1 45 4 82 8 82 3
0 3 -93 -1 -207z m-159 130 c2 -6 -1 -14 -6 -18 -7 -3 -8 0 -5 10 5 11 2 14
-10 9 -9 -3 -17 -18 -17 -33 -2 -24 -2 -24 -6 -3 -3 13 -2 30 1 37 6 15 38 14
43 -2z m70 11 c-3 -3 -12 -4 -19 -1 -8 3 -5 6 6 6 11 1 17 -2 13 -5z m-137
-18 c0 -2 -7 -7 -16 -10 -8 -3 -12 -2 -9 4 6 10 25 14 25 6z m-987 -83 c17
-11 32 -23 33 -29 0 -5 4 -58 8 -119 8 -132 14 -204 22 -268 l6 -48 -29 6
c-53 13 -136 77 -170 134 -66 110 -53 275 26 339 19 16 61 10 104 -15z m1114
21 c-3 -4 -2 -15 4 -25 7 -14 6 -17 -5 -13 -8 3 -13 13 -11 22 5 23 4 22 12
22 3 0 3 -3 0 -6z m-147 -24 c-6 -11 -12 -20 -14 -20 -2 0 -2 9 1 20 3 11 9
20 15 20 5 0 4 -9 -2 -20z m211 -10 c15 0 1 -19 -24 -30 -19 -9 -20 -9 -7 2 8
7 14 24 13 38 -1 14 0 18 3 8 3 -10 10 -18 15 -18z m-101 -4 c0 -8 6 -17 13
-19 9 -4 9 -6 0 -6 -7 -1 -17 8 -23 19 -7 14 -7 20 0 20 5 0 10 -6 10 -14z
m43 -36 c3 -11 1 -18 -4 -14 -5 3 -9 12 -9 20 0 20 7 17 13 -6z m-133 -6 c0
-8 -5 -12 -10 -9 -6 4 -8 11 -5 16 9 14 15 11 15 -7z m174 -12 c3 -5 -1 -9 -9
-9 -8 0 -12 4 -9 9 3 4 7 8 9 8 2 0 6 -4 9 -8z m-130 -21 c3 -5 -1 -11 -9 -14
-9 -4 -12 -1 -8 9 6 16 10 17 17 5z m111 -11 c3 -6 -1 -7 -9 -4 -18 7 -21 14
-7 14 6 0 13 -4 16 -10z m-65 -15 c7 -9 8 -15 2 -15 -5 0 -12 7 -16 15 -3 8
-4 15 -2 15 2 0 9 -7 16 -15z m-51 -17 c13 -4 13 -5 0 -10 -7 -3 -23 4 -34 15
l-20 20 20 -10 c11 -6 27 -12 34 -15z m106 12 c3 -5 1 -10 -4 -10 -6 0 -11 5
-11 10 0 6 2 10 4 10 3 0 8 -4 11 -10z m2 -56 c-3 -3 -12 -4 -19 -1 -8 3 -5 6
6 6 11 1 17 -2 13 -5z m-167 -24 c-8 -5 -19 -10 -25 -10 -5 0 -3 5 5 10 8 5
20 10 25 10 6 0 3 -5 -5 -10z m1 -33 c-10 -9 -11 -8 -5 6 3 10 9 15 12 12 3
-3 0 -11 -7 -18z m207 -42 c-3 -3 -9 2 -12 12 -6 14 -5 15 5 6 7 -7 10 -15 7
-18z m-188 5 c0 -5 -5 -10 -11 -10 -5 0 -7 5 -4 10 3 6 8 10 11 10 2 0 4 -4 4
-10z m81 -17 c13 -16 12 -17 -3 -4 -10 7 -18 15 -18 17 0 8 8 3 21 -13z m47
-28 c-3 -3 -9 2 -12 12 -6 14 -5 15 5 6 7 -7 10 -15 7 -18z m-148 -44 c0 -5
-7 -12 -16 -15 -14 -5 -15 -4 -4 9 14 17 20 19 20 6z m50 -7 c0 -8 -19 -13
-24 -6 -3 5 1 9 9 9 8 0 15 -2 15 -3z m-26 -30 c3 -8 2 -12 -4 -9 -6 3 -10 10
-10 16 0 14 7 11 14 -7z m49 -24 c3 -11 4 -20 3 -20 -1 0 -9 9 -19 20 -13 15
-14 20 -3 20 7 0 16 -9 19 -20z m-43 -10 c0 -5 -5 -10 -11 -10 -5 0 -7 5 -4
10 3 6 8 10 11 10 2 0 4 -4 4 -10z m-30 -4 c0 -3 -4 -8 -10 -11 -5 -3 -10 -1
-10 4 0 6 5 11 10 11 6 0 10 -2 10 -4z m-10 -36 c0 -5 -5 -10 -11 -10 -5 0 -7
5 -4 10 3 6 8 10 11 10 2 0 4 -4 4 -10z m70 -4 c0 -2 -7 -7 -16 -10 -8 -3 -12
-2 -9 4 6 10 25 14 25 6z m123 -51 c-3 -9 -8 -14 -10 -11 -3 3 -2 9 2 15 9 16
15 13 8 -4z m-208 -5 c3 -5 -1 -10 -9 -10 -9 0 -16 5 -16 10 0 6 4 10 9 10 6
0 13 -4 16 -10z m-10 -30 c3 -5 1 -10 -4 -10 -6 0 -11 5 -11 10 0 6 2 10 4 10
3 0 8 -4 11 -10z m120 -10 c3 -5 1 -10 -4 -10 -6 0 -11 5 -11 10 0 6 2 10 4
10 3 0 8 -4 11 -10z m-118 -50 c1 -11 -1 -22 -5 -24 -4 -2 -8 7 -8 20 -1 13 1
24 5 24 4 0 7 -9 8 -20z m78 11 c3 -5 2 -12 -3 -15 -5 -3 -9 1 -9 9 0 17 3 19
12 6z m7 -43 c-7 -7 -12 -8 -12 -2 0 14 12 26 19 19 2 -3 -1 -11 -7 -17z m-32
-14 c0 -2 -7 -4 -15 -4 -8 0 -15 4 -15 10 0 5 7 7 15 4 8 -4 15 -8 15 -10z
m-869 -143 c32 -153 241 -247 544 -245 219 2 375 51 459 144 32 36 56 91 56
133 0 21 2 21 130 -3 58 -10 119 -22 135 -25 17 -3 58 -10 93 -16 35 -6 60
-15 55 -19 -21 -19 -374 -265 -508 -354 -82 -54 -160 -108 -173 -119 -21 -20
-26 -20 -90 -7 -37 7 -110 24 -162 37 -52 13 -130 33 -172 43 -43 11 -193 53
-335 94 -142 41 -296 84 -343 96 -132 34 -211 61 -208 71 2 5 113 75 248 154
l245 146 7 -38 c4 -21 12 -62 19 -92z m796 97 c-3 -8 -6 -5 -6 6 -1 11 2 17 5
13 3 -3 4 -12 1 -19z m68 -56 c-3 -3 -11 0 -18 7 -9 10 -8 11 6 5 10 -3 15 -9
12 -12z m-70 -12 c-3 -5 -1 -10 6 -10 7 0 10 -3 6 -6 -9 -9 -28 6 -22 17 4 5
8 9 11 9 3 0 2 -4 -1 -10z m112 4 c-3 -3 -12 -4 -19 -1 -8 3 -5 6 6 6 11 1 17
-2 13 -5z m-125 -76 c-6 -6 -7 0 -4 19 5 21 7 23 10 9 2 -10 0 -22 -6 -28z
m70 18 c3 3 9 0 14 -7 4 -7 3 -10 -4 -5 -5 3 -12 2 -14 -3 -1 -5 -12 3 -22 17
-20 27 -20 27 0 9 12 -9 23 -14 26 -11z m58 14 c0 -5 -5 -10 -11 -10 -5 0 -7
5 -4 10 3 6 8 10 11 10 2 0 4 -4 4 -10z m-57 -57 c-7 -2 -19 -2 -25 0 -7 3 -2
5 12 5 14 0 19 -2 13 -5z m18 -16 c-10 -9 -11 -8 -5 6 3 10 9 15 12 12 3 -3 0
-11 -7 -18z m49 3 c0 -5 -4 -10 -10 -10 -5 0 -10 5 -10 10 0 6 5 10 10 10 6 0
10 -4 10 -10z m-83 -44 c0 -8 -9 -17 -20 -20 -18 -4 -18 -4 -1 15 21 23 21 23
21 5z m-47 -30 c0 -9 -30 -14 -35 -6 -4 6 3 10 14 10 12 0 21 -2 21 -4z"/>
<path d="M9022 1719 c2 -18 12 -37 23 -45 17 -11 25 -9 55 13 30 21 31 24 10
18 -14 -4 -30 -13 -36 -20 -6 -8 -16 -10 -23 -6 -10 6 -9 10 3 14 22 9 20 29
-1 25 -12 -2 -18 3 -17 15 1 9 -3 17 -8 17 -5 0 -8 -14 -6 -31z"/>
<path d="M9147 1723 c-4 -3 -7 -11 -7 -17 0 -6 5 -5 12 2 6 6 9 14 7 17 -3 3
-9 2 -12 -2z"/>
<path d="M8655 1523 c-60 -15 -88 -86 -88 -223 0 -99 3 -110 37 -190 51 -115
72 -147 118 -176 31 -20 42 -23 54 -13 11 9 12 15 3 26 -7 7 -9 16 -6 20 4 3
-1 12 -11 19 -9 7 -17 18 -17 26 -1 7 -7 12 -14 10 -7 -1 -10 2 -7 7 3 5 -8
26 -24 46 -17 21 -30 43 -30 49 0 6 -6 22 -13 36 -7 14 -14 61 -16 105 -3 86
-10 110 -22 79 -6 -16 -7 -15 -6 7 0 14 7 26 14 26 6 0 10 -4 7 -9 -3 -4 0 -8
5 -8 6 0 11 5 11 11 0 15 32 83 43 90 4 3 10 14 11 24 2 11 9 21 16 23 8 3 10
0 5 -8 -5 -9 -4 -11 4 -6 6 4 9 12 6 17 -8 12 -35 11 -35 -2 0 -5 -6 -7 -12
-3 -9 5 -9 2 1 -9 7 -9 10 -17 5 -18 -5 0 -16 -2 -25 -4 -21 -4 -20 25 1 42
16 13 16 13 -15 6z m-19 -38 c-1 -27 -11 -33 -19 -11 -3 7 0 19 6 25 15 15 15
15 13 -14z m14 -58 c0 -7 -4 -6 -10 3 -9 14 -14 7 -11 -13 1 -5 -3 -6 -9 -2
-8 5 -8 11 1 21 12 15 29 10 29 -9z m-20 -121 c0 -2 -8 -10 -17 -17 -16 -13
-17 -12 -4 4 13 16 21 21 21 13z m20 -226 c0 -5 -5 -10 -11 -10 -5 0 -7 5 -4
10 3 6 8 10 11 10 2 0 4 -4 4 -10z m65 -90 c-3 -5 -1 -10 5 -10 6 0 9 -4 5 -9
-3 -5 -1 -12 5 -16 5 -3 10 2 10 11 0 10 3 15 6 11 4 -3 4 -13 0 -22 -4 -13
-9 -13 -25 -4 -10 7 -17 20 -16 28 5 22 4 21 11 21 3 0 2 -4 -1 -10z"/>
<path d="M8765 995 c11 -9 20 -21 21 -28 0 -7 2 -15 4 -19 1 -5 3 -14 4 -20 1
-9 17 -13 47 -12 59 1 82 14 49 26 -16 6 -26 5 -32 -4 -6 -10 -8 -10 -8 2 0 8
-19 26 -43 40 -51 30 -69 37 -42 15z m60 -65 c3 -5 1 -10 -4 -10 -6 0 -11 5
-11 10 0 6 2 10 4 10 3 0 8 -4 11 -10z"/>
<path d="M10275 590 c-16 -7 -17 -9 -3 -9 9 -1 20 4 23 9 7 11 7 11 -20 0z"/>
<path d="M10309 583 c-6 -7 -17 -13 -23 -13 -7 0 -21 -7 -32 -16 -10 -8 -13
-12 -5 -8 8 4 49 17 90 30 l76 22 -48 -1 c-27 0 -52 -6 -58 -14z"/>
<path d="M10056 577 c3 -10 9 -15 12 -12 3 3 0 11 -7 18 -10 9 -11 8 -5 -6z"/>
<path d="M10190 561 c0 -10 29 -36 34 -30 1 2 -6 12 -16 22 -10 9 -18 13 -18
8z"/>
<path d="M9989 523 c-12 -16 -12 -17 2 -6 9 7 20 9 24 5 5 -4 5 -1 1 6 -9 16
-11 15 -27 -5z"/>
<path d="M10164 525 c-18 -14 -18 -14 4 -8 12 3 22 9 22 14 0 12 -3 11 -26 -6z"/>
<path d="M10084 505 c-5 -12 -10 -13 -20 -4 -11 9 -14 8 -14 -5 0 -9 -5 -16
-12 -16 -6 0 -9 -2 -6 -5 9 -10 68 17 68 31 0 19 -9 18 -16 -1z"/>
<path d="M10120 510 c-9 -6 -10 -10 -3 -10 6 0 15 5 18 10 8 12 4 12 -15 0z"/>
<path d="M9941 484 c3 -20 -2 -32 -17 -38 -9 -4 -13 -2 -8 5 4 7 1 10 -7 7 -8
-3 -13 -11 -11 -18 2 -7 -5 -9 -18 -5 -11 3 -20 2 -20 -3 0 -5 -19 -13 -42
-16 -24 -4 -50 -11 -58 -16 -31 -20 142 22 225 54 31 12 34 15 14 13 -14 -1
-34 5 -43 12 -9 8 -16 10 -15 5z"/>
<path d="M1026 1916 c-15 -13 -24 -26 -20 -28 5 -3 4 -4 -2 -2 -11 2 -73 -54
-63 -57 29 -9 55 -2 56 14 2 18 1 18 -18 1 -10 -9 -21 -15 -24 -12 -8 8 20 28
43 33 12 2 27 -4 34 -13 12 -15 11 -16 -4 -3 -16 12 -18 11 -18 -8 0 -13 4
-19 10 -16 6 4 18 1 27 -7 14 -11 15 -10 8 12 -4 14 -11 29 -16 35 -12 12 -11
25 2 25 5 0 7 -4 4 -10 -11 -17 11 -11 29 9 16 17 16 20 1 35 -20 19 -14 20
-49 -8z m32 2 c-2 -7 3 -12 10 -10 8 1 11 -2 7 -7 -6 -11 -35 -4 -35 8 0 8 11
21 17 21 2 0 2 -6 1 -12z"/>
<path d="M847 1753 c-35 -56 -41 -71 -19 -44 26 32 55 81 48 81 -3 0 -16 -17
-29 -37z"/>
<path d="M656 1238 c-8 -33 -6 -395 3 -448 6 -29 9 49 10 213 0 141 -1 257 -3
257 -2 0 -6 -10 -10 -22z"/>
<path d="M10091 1022 c2 -15 -1 -33 -5 -41 -5 -8 -3 -17 5 -22 8 -5 9 -9 3 -9
-17 0 -24 -61 -7 -67 7 -3 13 -15 13 -26 0 -20 0 -20 -15 -1 -14 18 -14 18
-14 -6 1 -14 -3 -48 -9 -77 -7 -42 -6 -53 5 -58 8 -3 19 -2 24 1 6 3 15 1 22
-4 7 -5 30 -12 52 -15 77 -12 161 -27 221 -40 57 -13 62 -13 72 4 7 10 8 20 3
24 -5 3 -12 -1 -14 -7 -4 -10 -6 -10 -6 0 -1 6 -7 12 -15 12 -8 0 -17 7 -20
16 -9 22 -8 23 13 21 11 0 17 -5 15 -9 -3 -5 -11 -5 -17 -2 -8 5 -9 4 -2 -4 6
-6 21 -9 33 -5 l23 6 -22 23 c-21 22 -21 24 -4 24 10 0 15 -3 12 -7 -7 -7 11
-33 23 -33 4 0 10 9 13 20 3 11 0 20 -5 20 -6 0 -5 6 2 15 12 15 0 22 -14 8
-13 -13 -44 -10 -39 4 3 8 2 13 -3 12 -32 -6 -48 21 -22 37 8 5 9 2 5 -9 -3
-10 -2 -17 2 -17 5 0 11 6 14 13 2 7 10 0 17 -15 l13 -28 24 26 c12 14 23 20
23 14 0 -6 5 -8 11 -5 6 4 8 13 5 21 -3 7 -1 16 4 19 6 4 10 -5 10 -19 0 -14
-4 -26 -10 -26 -5 0 -10 -5 -10 -11 0 -6 6 -9 14 -6 8 3 17 -1 20 -10 5 -13 9
-13 24 -2 14 11 13 9 -2 -9 l-19 -22 31 0 c20 0 31 5 30 13 -2 6 3 11 11 9 8
-2 18 3 22 10 6 9 9 6 9 -10 0 -13 -4 -21 -9 -18 -5 3 -14 0 -20 -8 -9 -11 -6
-13 13 -11 14 2 31 6 38 11 11 6 11 4 0 -7 -13 -14 -72 -22 -72 -9 0 10 -33 9
-46 -1 -8 -6 -10 -2 -9 15 2 17 -4 27 -21 34 -13 7 -26 7 -29 2 -7 -11 12 -23
25 -15 6 3 10 1 10 -4 0 -6 -9 -11 -20 -11 -18 0 -26 -16 -21 -43 1 -5 -4 -5
-11 -1 -9 6 -9 3 1 -9 7 -9 9 -17 4 -17 -5 0 -9 -9 -9 -21 0 -19 1 -19 13 -3
7 10 13 25 13 35 0 9 7 20 16 23 14 5 15 4 4 -9 -7 -8 -9 -15 -5 -15 4 0 2 -7
-6 -16 -10 -13 -10 -17 2 -25 8 -5 19 -9 24 -9 6 0 4 4 -4 9 -10 7 -11 12 -1
27 9 15 10 15 6 2 -9 -30 23 -28 77 4 28 18 54 35 57 39 3 3 15 11 28 18 16 9
22 21 22 46 0 18 -6 36 -12 38 -10 4 -10 6 0 6 7 1 12 16 12 39 0 29 -7 45
-27 64 -37 33 -93 61 -93 45 0 -8 -3 -8 -8 -2 -13 19 -67 37 -122 41 -57 4
-108 9 -172 20 -25 4 -38 2 -38 -5 0 -6 -10 -11 -22 -11 -19 0 -20 2 -8 10 11
7 6 9 -20 9 -19 -1 -27 -3 -17 -6 9 -2 17 -11 17 -19 0 -16 33 -11 57 8 7 6
14 5 18 -2 3 -6 11 -8 16 -5 5 4 9 2 9 -3 0 -6 -10 -10 -22 -11 -41 -1 -58 -4
-58 -11 0 -15 14 -19 28 -8 8 7 28 11 44 10 22 -2 29 1 25 11 -3 8 3 13 14 14
10 1 19 -3 19 -8 0 -6 -5 -7 -12 -3 -7 4 -8 3 -4 -4 10 -17 26 -15 26 3 0 12
4 13 18 6 9 -5 21 -9 25 -9 17 0 20 -12 3 -12 -9 0 -15 -4 -12 -8 3 -5 -1 -9
-9 -9 -8 0 -12 4 -9 8 5 9 -75 1 -90 -9 -6 -4 -19 -5 -30 -3 -13 2 -16 -1 -11
-11 6 -10 5 -11 -6 0 -18 17 -29 15 -30 -5 0 -11 -3 -13 -6 -5 -2 6 -9 10 -14
6 -5 -3 -9 0 -9 5 0 6 7 11 15 11 18 0 19 5 3 29 -10 16 -13 17 -26 5 -7 -8
-18 -12 -22 -9 -5 3 -7 -8 -5 -24 2 -19 -2 -31 -11 -35 -12 -4 -12 -2 -4 14 7
14 8 26 0 39 -14 27 -13 31 7 24 11 -4 14 -3 9 5 -4 7 -2 12 3 12 6 0 11 3 11
8 0 4 -11 7 -25 7 -14 0 -25 -3 -25 -7 0 -5 -5 -8 -11 -8 -5 0 -7 5 -4 10 3 6
-1 10 -10 10 -12 0 -16 -8 -14 -28z m45 -49 c-8 -8 -12 -3 -21 27 l-7 25 17
-23 c9 -13 14 -26 11 -29z m364 27 c8 -5 12 -10 8 -10 -4 0 -3 -12 3 -27 10
-27 0 -42 -28 -43 -20 0 -15 20 5 21 16 1 16 2 0 6 -10 2 -18 9 -18 14 0 5 -5
9 -11 9 -5 0 -7 -4 -4 -10 3 -5 0 -10 -8 -10 -8 0 -17 -9 -20 -21 -3 -12 -10
-18 -16 -14 -6 3 -11 1 -11 -4 0 -11 13 -15 38 -12 6 1 12 -3 12 -10 0 -7 -9
-9 -25 -5 -14 4 -25 2 -25 -4 0 -9 12 -11 67 -14 10 -1 24 10 31 24 12 22 13
23 9 3 -3 -12 0 -24 7 -27 6 -2 0 -5 -14 -5 -21 -1 -22 -3 -10 -12 12 -9 12
-10 -4 -5 -11 4 -23 1 -28 -6 -5 -10 -8 -8 -8 5 0 14 -7 18 -27 16 -48 -4 -74
1 -68 11 3 5 12 7 20 3 8 -3 15 0 15 6 0 6 -14 11 -31 11 -23 0 -30 -4 -26
-14 3 -8 -2 -21 -12 -30 -15 -14 -17 -14 -17 3 0 11 6 17 12 14 8 -3 11 2 7
16 -3 12 -10 21 -17 22 -6 0 -21 2 -33 3 -26 3 -29 -4 -10 -23 10 -10 8 -11
-7 -5 -16 6 -17 4 -7 -14 16 -29 13 -41 -4 -18 -12 16 -18 17 -27 8 -9 -9 -9
-12 2 -12 7 0 10 -3 7 -6 -4 -4 -14 -1 -23 7 -9 7 -29 14 -45 15 -29 2 -67 30
-56 41 4 3 2 14 -3 23 -8 15 -6 17 9 13 13 -3 18 -12 16 -29 -1 -14 2 -27 6
-30 5 -3 9 0 9 7 0 8 4 8 15 -1 8 -7 15 -9 15 -6 0 4 8 3 17 -3 11 -6 24 -6
35 0 20 11 25 39 7 39 -6 0 -9 -6 -6 -14 3 -8 -1 -17 -9 -20 -11 -4 -14 -1 -9
13 3 11 0 23 -6 27 -7 4 -9 3 -6 -2 3 -6 2 -16 -2 -22 -6 -10 -14 -8 -32 8
l-24 21 25 -12 c22 -11 23 -10 13 3 -11 13 -8 15 27 14 22 0 40 -4 40 -7 0 -3
15 -6 33 -7 17 -1 51 -4 75 -6 31 -3 42 0 42 10 0 17 -17 19 -22 3 -3 -8 -15
-9 -36 -4 -26 5 -32 11 -30 28 3 21 28 37 28 17 0 -6 -4 -8 -10 -5 -5 3 -10 2
-10 -4 0 -15 34 -31 48 -22 7 4 10 15 6 24 -3 10 -1 17 5 17 6 0 11 -7 11 -15
0 -8 5 -15 10 -15 6 0 10 5 10 11 0 5 5 7 11 3 6 -3 14 -2 18 3 3 6 20 18 36
27 24 14 25 16 8 13 -13 -3 -23 -1 -23 4 0 12 31 11 50 -1z m-296 -17 c-5 -5
-12 -12 -16 -18 -4 -6 -8 -2 -8 8 0 9 7 17 17 17 9 0 12 -3 7 -7z m341 -23 c9
-17 21 -28 27 -24 7 4 5 10 -6 16 -21 12 -21 28 2 28 13 0 14 -2 4 -9 -11 -7
-10 -10 3 -15 9 -3 22 -3 28 0 7 4 2 -3 -10 -15 -19 -18 -27 -20 -43 -11 -11
6 -18 15 -15 20 3 5 1 11 -5 15 -5 3 -10 10 -10 16 0 17 9 9 25 -21z m-260
-20 c-3 -5 -14 -10 -23 -9 -14 0 -13 2 3 9 27 11 27 11 20 0z m384 -16 c-6 -8
-15 -12 -18 -8 -3 4 0 9 7 11 6 3 9 10 6 15 -4 7 -2 8 5 4 9 -6 9 -11 0 -22z
m-34 -4 c3 -5 -1 -10 -10 -10 -9 0 -13 5 -10 10 3 6 8 10 10 10 2 0 7 -4 10
-10z m-95 -10 c0 -5 -2 -10 -4 -10 -3 0 -8 5 -11 10 -3 6 -1 10 4 10 6 0 11
-4 11 -10z m-55 -9 c3 -5 1 -12 -4 -15 -5 -3 -11 1 -15 9 -6 16 9 21 19 6z
m113 -16 c-3 -3 -9 2 -12 12 -6 14 -5 15 5 6 7 -7 10 -15 7 -18z m42 9 c0 -3
-7 -12 -15 -20 -16 -17 -18 -14 -9 10 6 15 24 23 24 10z m80 -26 c0 -5 -7 -3
-15 6 -8 8 -15 18 -15 22 0 3 7 1 15 -6 8 -7 15 -17 15 -22z m-126 -20 c-3
-11 -2 -18 2 -15 5 3 14 -1 21 -8 9 -10 7 -14 -10 -19 -11 -3 -23 -3 -26 -1
-2 3 1 5 8 5 22 0 0 20 -22 21 l-22 0 23 9 c12 5 22 12 22 16 0 3 -7 4 -15 1
-8 -4 -17 -1 -21 5 -4 7 -3 8 4 4 7 -4 12 -3 12 3 0 6 7 8 15 5 10 -4 13 -13
9 -26z m-311 2 c-3 -12 -8 -19 -11 -16 -5 6 5 36 12 36 2 0 2 -9 -1 -20z m408
11 c-8 -5 -20 -7 -28 -4 -21 8 -15 13 15 13 20 0 23 -3 13 -9z m-541 -31 c11
-11 16 -20 10 -20 -18 0 -10 -22 10 -27 11 -3 17 -9 14 -14 -3 -5 -1 -9 5 -9
5 0 17 -3 25 -6 12 -5 15 -2 10 12 -4 12 -3 15 3 7 6 -8 14 -9 23 -3 12 8 13
10 1 10 -11 0 -10 5 4 20 10 11 28 20 39 19 18 -1 18 -2 -4 -8 -14 -4 -25 -12
-24 -19 2 -26 4 -32 12 -30 4 0 15 -2 25 -7 16 -7 17 -9 2 -25 -17 -18 -5 -37
15 -25 6 3 10 -1 10 -10 0 -15 -3 -14 -29 1 -17 10 -28 21 -26 24 8 13 -22 43
-34 36 -9 -6 -7 -12 6 -23 10 -8 12 -12 5 -8 -7 4 -23 0 -36 -8 -22 -15 -23
-14 -18 8 4 22 1 24 -27 20 -17 -2 -31 1 -31 6 0 5 -10 13 -22 18 l-23 8 22 7
c24 8 37 32 23 41 -6 4 -15 3 -21 -1 -8 -4 -7 -9 2 -15 11 -7 10 -9 -4 -9 -10
0 -20 -7 -23 -15 -11 -26 -21 -16 -16 16 3 20 7 26 12 19 6 -9 11 -7 19 9 14
26 16 26 41 1z m240 -3 c0 -23 -29 -72 -30 -50 0 6 5 15 10 18 6 3 10 15 10
26 0 16 -3 18 -19 9 -12 -6 -22 -6 -25 -1 -7 10 9 19 37 20 11 1 17 -6 17 -22z
m310 9 c0 -2 -7 -6 -15 -10 -8 -3 -15 -1 -15 4 0 6 7 10 15 10 8 0 15 -2 15
-4z m-215 -16 c-3 -5 -12 -10 -18 -10 -7 0 -6 4 3 10 19 12 23 12 15 0z m-290
-19 c-3 -6 -11 -11 -17 -11 -6 0 -6 6 2 15 14 17 26 13 15 -4z m168 12 c-7 -2
-13 -12 -13 -21 0 -15 -2 -15 -10 -2 -7 12 -12 12 -22 2 -9 -9 -9 -12 0 -12 7
0 12 -5 12 -11 0 -8 -5 -8 -15 1 -22 18 -19 27 13 38 27 10 58 15 35 5z m-123
-7 c0 -2 -7 -7 -16 -10 -8 -3 -12 -2 -9 4 6 10 25 14 25 6z m50 -16 c0 -5 -5
-10 -11 -10 -5 0 -7 5 -4 10 3 6 8 10 11 10 2 0 4 -4 4 -10z m120 -4 c0 -3 -4
-8 -10 -11 -5 -3 -10 -1 -10 4 0 6 5 11 10 11 6 0 10 -2 10 -4z m300 -12 c0
-8 -5 -12 -10 -9 -6 4 -8 11 -5 16 9 14 15 11 15 -7z m-344 -24 c5 1 19 6 31
11 17 6 21 5 17 -6 -7 -17 -32 -27 -39 -15 -3 5 -12 7 -20 3 -10 -3 -15 1 -15
13 0 14 2 16 9 6 4 -8 12 -13 17 -12z m-273 -21 c-8 -8 -13 -7 -18 2 -5 8 -4
10 3 5 7 -4 12 -2 12 5 0 7 3 9 7 6 4 -4 2 -12 -4 -18z m437 7 c0 -3 -4 -8
-10 -11 -5 -3 -10 -1 -10 4 0 6 5 11 10 11 6 0 10 -2 10 -4z m-370 -10 c0 -3
-4 -8 -10 -11 -5 -3 -10 -1 -10 4 0 6 5 11 10 11 6 0 10 -2 10 -4z m466 -33
c-3 -3 -11 -1 -18 3 -7 5 -24 7 -38 5 -24 -2 -24 -2 -5 12 17 13 22 13 42 0
13 -9 22 -18 19 -20z m-263 2 c-3 -9 -8 -14 -10 -11 -3 3 -2 9 2 15 9 16 15
13 8 -4z m30 -4 c3 -13 1 -18 -9 -14 -7 2 -10 11 -7 19 7 19 10 18 16 -5z
m182 -11 c3 -5 1 -10 -4 -10 -6 0 -11 5 -11 10 0 6 2 10 4 10 3 0 8 -4 11 -10z"/>
<path d="M10475 970 c3 -5 10 -10 16 -10 5 0 9 5 9 10 0 6 -7 10 -16 10 -8 0
-12 -4 -9 -10z"/>
<path d="M10135 781 c-3 -6 0 -11 9 -11 8 0 16 -6 19 -12 2 -7 7 -10 11 -7 3
3 -2 14 -13 23 -12 11 -21 14 -26 7z"/>
<path d="M10280 746 c0 -9 5 -16 10 -16 6 0 10 4 10 9 0 6 -4 13 -10 16 -5 3
-10 -1 -10 -9z"/>
<path d="M10506 623 c-6 -14 -5 -15 5 -6 7 7 10 15 7 18 -3 3 -9 -2 -12 -12z"/>
<path d="M680 193 l0 -193 35 0 c33 0 35 2 35 34 0 19 -4 38 -10 41 -5 3 -10
33 -10 65 0 32 -4 62 -10 65 -5 3 -10 30 -10 59 0 30 -7 69 -15 87 -13 31 -14
19 -15 -158z"/>
<path d="M657 333 c-11 -11 -8 -333 3 -333 6 0 10 63 10 170 0 94 -1 170 -3
170 -2 0 -7 -3 -10 -7z"/>
<path d="M10355 91 c-11 -5 -50 -27 -85 -50 -60 -38 -63 -41 -35 -41 17 0 42
8 55 17 24 16 24 16 11 0 -13 -16 0 -17 208 -15 172 1 221 4 221 14 0 19 -6
21 -166 54 -158 32 -177 34 -209 21z m48 -28 c-7 -2 -19 -2 -25 0 -7 3 -2 5
12 5 14 0 19 -2 13 -5z m-43 -8 c0 -2 -10 -9 -22 -15 -22 -11 -22 -10 -4 4 21
17 26 19 26 11z m124 -4 c3 -4 -6 -6 -19 -3 -14 2 -25 6 -25 8 0 8 39 4 44 -5z
m124 -22 c34 -6 61 -14 58 -16 -6 -6 -158 25 -165 34 -3 3 5 3 19 0 14 -3 53
-11 88 -18z m-145 -16 c-7 -2 -19 -2 -25 0 -7 3 -2 5 12 5 14 0 19 -2 13 -5z"/>
</g>
</svg>
